<?xml version="1.0" encoding="utf-8"?>
<!-- Generator: Adobe Illustrator 24.0.1, SVG Export Plug-In . SVG Version: 6.00 Build 0)  -->
<svg version="1.1" id="Layer_1" xmlns="http://www.w3.org/2000/svg" xmlns:xlink="http://www.w3.org/1999/xlink" x="0px" y="0px"
	 viewBox="0 0 15 15" style="enable-background:new 0 0 15 15;" xml:space="preserve">
<title>51D8F3D5-AFD9-40C1-A527-649BC905F0FA</title>
<desc>Created with sketchtool.</desc>
<g id="Symbols">
	<g id="Icon-_x2F_-phone">
		<path d="M11.6,14.7c-2.1,0-5-1.5-7.5-3.9C1,7.6-0.6,3.7,0.6,1.7l0.1-0.1l1.3-1.3L5.9,4L4.6,5.3c0.6,0.8,1.3,1.6,2.1,2.4
			c1,1,2,1.9,3.1,2.7L11,9.1l3.8,3.8l-1.5,1.4C12.9,14.6,12.3,14.7,11.6,14.7z M1.5,2.3C0.7,3.6,1.8,7,4.9,10.1
			c3.1,3.1,6.5,4.2,7.8,3.4l0.6-0.6L11,10.5l-1.1,1.1l-0.7-0.5C8.1,10.3,7,9.4,6,8.3C5.2,7.6,4.4,6.7,3.8,5.9L3.2,5.2L4.4,4L2.1,1.7
			L1.5,2.3z"/>
	</g>
</g>
</svg>
